<svg width="100" height="100" viewBox="0 0 100 100" fill="none" xmlns="http://www.w3.org/2000/svg">
<mask id="mask0" mask-type="alpha" maskUnits="userSpaceOnUse" x="0" y="0" width="100" height="100">
<rect width="100" height="100" fill="#C4C4C4"/>
</mask>
<g mask="url(#mask0)">
<path d="M23 52H30M30 52H58V36L76 23L94 36V94H6V52H16L18 22H28L30 52Z" stroke="black" stroke-width="4"/>
<path d="M24 14C26.3333 13 33.2 11 42 11C50.8 11 55.6667 7 57 5M55 16C60.3333 15.3333 71.6 12.4 74 6" stroke="black" stroke-width="4"/>
<rect x="66" y="46" width="4" height="8" fill="black"/>
<rect x="66" y="60" width="4" height="8" fill="black"/>
<rect x="58" y="60" width="4" height="8" transform="rotate(90 58 60)" fill="black"/>
<rect x="46" y="60" width="4" height="8" transform="rotate(90 46 60)" fill="black"/>
<rect x="34" y="60" width="4" height="8" transform="rotate(90 34 60)" fill="black"/>
<rect x="22" y="60" width="4" height="8" transform="rotate(90 22 60)" fill="black"/>
<rect x="66" y="74" width="4" height="8" fill="black"/>
<rect x="74" y="46" width="4" height="8" fill="black"/>
<rect x="74" y="60" width="4" height="8" fill="black"/>
<rect x="74" y="74" width="4" height="8" fill="black"/>
<rect x="82" y="46" width="4" height="8" fill="black"/>
<rect x="82" y="60" width="4" height="8" fill="black"/>
<rect x="82" y="74" width="4" height="8" fill="black"/>
<rect x="10" y="86" width="24" height="4" rx="2" fill="#236EFF"/>
<rect x="38" y="86" width="8" height="4" rx="2" fill="#236EFF"/>
<rect x="79.2051" y="30" width="12" height="4" rx="2" transform="rotate(37.0487 79.2051 30)" fill="#236EFF"/>
</g>
</svg>
