<svg width="40" height="40" viewBox="0 0 40 40" fill="none" xmlns="http://www.w3.org/2000/svg">
<rect width="40" height="40" fill="#236EFF"/>
<path d="M17.8388 14.1L12.8068 26H8.86281L3.83081 14.1H8.14881L10.9878 21.053L13.8948 14.1H17.8388ZM18.238 14.1H22.25V26H18.238V14.1ZM29.9104 14.1C31.0097 14.1 31.9674 14.2813 32.7834 14.644C33.5994 15.0067 34.2284 15.528 34.6704 16.208C35.1124 16.888 35.3334 17.6813 35.3334 18.588C35.3334 19.4947 35.1124 20.288 34.6704 20.968C34.2284 21.648 33.5994 22.1693 32.7834 22.532C31.9674 22.8947 31.0097 23.076 29.9104 23.076H28.1934V26H24.1814V14.1H29.9104ZM29.6554 19.982C30.1994 19.982 30.6074 19.863 30.8794 19.625C31.1514 19.3757 31.2874 19.03 31.2874 18.588C31.2874 18.146 31.1514 17.806 30.8794 17.568C30.6074 17.3187 30.1994 17.194 29.6554 17.194H28.1934V19.982H29.6554Z" fill="#222222"/>
</svg>
