<svg xmlns="http://www.w3.org/2000/svg" width="74" height="96" viewBox="0 0 74 96"><defs><clipPath id="walfa"><path fill="#fff" d="M3.53 53a9 9 0 0 1 9-9h33.946a9 9 0 1 1 0 18H12.53a9 9 0 0 1-9-9z"/></clipPath><clipPath id="walfb"><path fill="#fff" d="M30.512 66a9 9 0 0 0-8.483 12.013A9 9 0 0 0 22.52 96h33.946a9 9 0 0 0 8.483-12.013A9 9 0 0 0 64.458 66z"/></clipPath><clipPath id="walfc"><path fill="#fff" d="M23.51 31a9 9 0 0 1 9-9h20.96a9 9 0 1 1 0 18H32.51a9 9 0 0 1-9-9z"/></clipPath><clipPath id="walfd"><path fill="#fff" d="M.54 9a9 9 0 0 1 9-9h38.94a9 9 0 0 1 0 18H9.54a9 9 0 0 1-9-9z"/></clipPath></defs><g><g><g><path fill="none" stroke="#236eff" stroke-miterlimit="20" stroke-width="6" d="M3.53 53a9 9 0 0 1 9-9h33.946a9 9 0 0 1 9 9v0a9 9 0 0 1-9 9H12.53a9 9 0 0 1-9-9z" clip-path="url(&quot;#walfa&quot;)"/></g><g><path fill="none" stroke="#222" stroke-miterlimit="20" stroke-width="6" d="M30.512 66a9 9 0 0 0-8.483 12.013A9 9 0 0 0 22.52 96h33.946a9 9 0 0 0 8.483-12.013A9 9 0 0 0 64.458 66z" clip-path="url(&quot;#walfb&quot;)"/></g><g/><g><path fill="none" stroke="#222" stroke-miterlimit="20" stroke-width="6" d="M23.51 31a9 9 0 0 1 9-9h20.96a9 9 0 0 1 9 9v0a9 9 0 0 1-9 9H32.51a9 9 0 0 1-9-9z" clip-path="url(&quot;#walfc&quot;)"/></g><g><path fill="none" stroke="#236eff" stroke-miterlimit="20" stroke-width="6" d="M.54 9a9 9 0 0 1 9-9h38.94a9 9 0 0 1 9 9v0a9 9 0 0 1-9 9H9.54a9 9 0 0 1-9-9z" clip-path="url(&quot;#walfd&quot;)"/></g></g></g></svg>