<svg width="104" height="57" viewBox="0 0 104 57" fill="none" xmlns="http://www.w3.org/2000/svg">
<path d="M0.837757 46.5524C0.314049 47.1943 0.409854 48.1392 1.05174 48.6629C1.69363 49.1866 2.63854 49.0908 3.16224 48.4489L0.837757 46.5524ZM103.162 48.4489C103.686 47.807 103.59 46.8621 102.948 46.3384C102.306 45.8147 101.361 45.9105 100.838 46.5524L103.162 48.4489ZM3.16224 48.4489C8.92057 41.3912 17.3725 40.2309 26.408 41.5521C35.4836 42.8792 44.6386 46.628 51.5257 48.9237L52.4743 46.0776C45.8614 43.8733 36.2664 39.9618 26.842 38.5837C17.3775 37.1997 7.57943 38.2894 0.837757 46.5524L3.16224 48.4489ZM51.5257 48.9237C58.1386 51.128 67.7336 55.0396 77.158 56.4177C86.6225 57.8017 96.4206 56.712 103.162 48.4489L100.838 46.5524C95.0794 53.6102 86.6275 54.7705 77.592 53.4493C68.5164 52.1221 59.3614 48.3733 52.4743 46.0776L51.5257 48.9237Z" fill="#222222"/>
<path d="M0.837757 37.9753C0.314049 38.6172 0.409854 39.5621 1.05174 40.0858C1.69363 40.6095 2.63854 40.5137 3.16224 39.8718L0.837757 37.9753ZM103.162 39.8718C103.686 39.2299 103.59 38.285 102.948 37.7613C102.306 37.2376 101.361 37.3334 100.838 37.9753L103.162 39.8718ZM3.16224 39.8718C8.92057 32.814 17.3725 31.6537 26.408 32.9749C35.4836 34.302 44.6386 38.0508 51.5257 40.3465L52.4743 37.5005C45.8614 35.2962 36.2664 31.3846 26.842 30.0065C17.3775 28.6225 7.57943 29.7122 0.837757 37.9753L3.16224 39.8718ZM51.5257 40.3465C58.1386 42.5508 67.7336 46.4624 77.158 47.8405C86.6225 49.2245 96.4206 48.1348 103.162 39.8718L100.838 37.9753C95.0794 45.033 86.6275 46.1933 77.592 44.8721C68.5164 43.545 59.3614 39.7962 52.4743 37.5005L51.5257 40.3465Z" fill="#236EFF"/>
<path d="M0.837757 18.9753C0.314049 19.6172 0.409854 20.5621 1.05174 21.0858C1.69363 21.6095 2.63854 21.5137 3.16224 20.8718L0.837757 18.9753ZM103.162 20.8718C103.686 20.2299 103.59 19.285 102.948 18.7613C102.306 18.2376 101.361 18.3334 100.838 18.9753L103.162 20.8718ZM3.16224 20.8718C8.92057 13.814 17.3725 12.6537 26.408 13.9749C35.4836 15.302 44.6386 19.0508 51.5257 21.3465L52.4743 18.5005C45.8614 16.2962 36.2664 12.3846 26.842 11.0065C17.3775 9.62254 7.57943 10.7122 0.837757 18.9753L3.16224 20.8718ZM51.5257 21.3465C58.1386 23.5508 67.7336 27.4624 77.158 28.8405C86.6225 30.2245 96.4206 29.1348 103.162 20.8718L100.838 18.9753C95.0794 26.033 86.6275 27.1933 77.592 25.8721C68.5164 24.545 59.3614 20.7962 52.4743 18.5005L51.5257 21.3465Z" fill="#236EFF"/>
<path d="M0.837757 27.9753C0.314049 28.6172 0.409854 29.5621 1.05174 30.0858C1.69363 30.6095 2.63854 30.5137 3.16224 29.8718L0.837757 27.9753ZM103.162 29.8718C103.686 29.2299 103.59 28.285 102.948 27.7613C102.306 27.2376 101.361 27.3334 100.838 27.9753L103.162 29.8718ZM3.16224 29.8718C8.92057 22.814 17.3725 21.6537 26.408 22.9749C35.4836 24.302 44.6386 28.0508 51.5257 30.3465L52.4743 27.5005C45.8614 25.2962 36.2664 21.3846 26.842 20.0065C17.3775 18.6225 7.57943 19.7122 0.837757 27.9753L3.16224 29.8718ZM51.5257 30.3465C58.1386 32.5508 67.7336 36.4624 77.158 37.8405C86.6225 39.2245 96.4206 38.1348 103.162 29.8718L100.838 27.9753C95.0794 35.033 86.6275 36.1933 77.592 34.8721C68.5164 33.545 59.3614 29.7962 52.4743 27.5005L51.5257 30.3465Z" fill="#222222"/>
<path d="M0.837757 9.39909C0.314049 10.041 0.409854 10.9859 1.05174 11.5096C1.69363 12.0333 2.63854 11.9375 3.16224 11.2956L0.837757 9.39909ZM103.162 11.2956C103.686 10.6537 103.59 9.70882 102.948 9.18511C102.306 8.6614 101.361 8.7572 100.838 9.39909L103.162 11.2956ZM3.16224 11.2956C8.92057 4.23784 17.3725 3.07754 26.408 4.39877C35.4836 5.72587 44.6386 9.47468 51.5257 11.7704L52.4743 8.92433C45.8614 6.72002 36.2664 2.80843 26.842 1.43034C17.3775 0.0463691 7.57943 1.13607 0.837757 9.39909L3.16224 11.2956ZM51.5257 11.7704C58.1386 13.9747 67.7336 17.8863 77.158 19.2644C86.6225 20.6483 96.4206 19.5586 103.162 11.2956L100.838 9.39909C95.0794 16.4569 86.6275 17.6172 77.592 16.2959C68.5164 14.9688 59.3614 11.22 52.4743 8.92433L51.5257 11.7704Z" fill="#222222"/>
</svg>
